<?xml version="1.0" standalone="no"?>
<!DOCTYPE svg PUBLIC "-//W3C//DTD SVG 20010904//EN"
 "http://www.w3.org/TR/2001/REC-SVG-20010904/DTD/svg10.dtd">
<svg version="1.0" xmlns="http://www.w3.org/2000/svg"
 width="744.000000pt" height="744.000000pt" viewBox="0 0 744.000000 744.000000"
 preserveAspectRatio="xMidYMid meet">
<metadata>
Created by potrace 1.14, written by Peter Selinger 2001-2017
</metadata>
<g transform="translate(0.000000,744.000000) scale(0.100000,-0.100000)"
fill="#000000" stroke="none">
<path d="M3190 6691 c-190 -42 -380 -137 -435 -219 -38 -56 -34 -112 15 -209
50 -98 112 -170 164 -194 102 -46 261 -5 571 147 148 72 212 116 255 176 74
102 6 225 -158 286 -93 34 -288 41 -412 13z"/>
<path d="M4360 6359 c-146 -17 -211 -39 -262 -87 -23 -21 -28 -34 -28 -75 0
-159 213 -270 455 -239 164 21 200 60 193 206 -5 106 -25 159 -72 183 -37 20
-175 26 -286 12z"/>
<path d="M5385 6046 c-183 -25 -326 -71 -333 -107 -5 -29 73 -56 379 -133 455
-115 658 -181 874 -286 216 -105 377 -223 650 -475 246 -228 314 -275 398
-275 63 0 77 13 77 71 0 147 -127 413 -298 622 -79 97 -223 229 -317 293 -223
148 -552 258 -877 293 -127 14 -439 12 -553 -3z"/>
<path d="M1610 6020 c-401 -39 -977 -313 -1246 -592 -236 -244 -349 -522 -361
-888 -10 -304 53 -611 187 -922 l38 -87 -25 -73 c-31 -87 -42 -248 -24 -351
109 -627 975 -1475 2026 -1983 502 -243 949 -369 1345 -381 320 -10 588 40
945 177 55 21 147 50 205 65 721 179 1644 801 1929 1299 75 131 93 262 46 343
-57 97 -162 98 -300 3 l-45 -31 26 58 c14 32 39 91 55 131 20 49 50 98 90 145
120 142 267 390 339 571 118 300 129 638 29 924 -217 619 -894 1057 -1890
1221 -549 91 -1194 106 -1864 45 l-180 -17 -260 103 c-423 167 -600 219 -821
240 -118 11 -132 11 -244 0z m2360 -781 c194 -24 363 -70 505 -138 179 -86
241 -153 287 -315 20 -72 23 -103 23 -276 0 -165 -3 -202 -18 -242 -33 -86
-121 -137 -211 -123 -88 15 -126 48 -274 235 -177 224 -266 309 -403 383 -263
144 -591 73 -701 -151 -31 -62 -33 -73 -33 -167 1 -92 3 -105 32 -160 55 -107
180 -205 358 -283 39 -17 162 -63 275 -102 393 -137 552 -206 705 -307 211
-139 333 -296 402 -520 25 -82 27 -101 27 -273 1 -222 -14 -292 -99 -465 -178
-364 -560 -608 -1066 -680 -123 -17 -426 -20 -567 -4 -343 37 -636 143 -793
287 -92 84 -144 184 -170 326 -13 72 -29 393 -22 444 3 23 20 66 37 94 65 107
199 128 293 45 20 -17 83 -95 141 -172 122 -161 293 -341 405 -426 192 -145
416 -203 637 -165 190 33 316 122 389 275 34 72 36 82 36 176 0 87 -3 107 -27
157 -83 179 -245 279 -758 468 -429 158 -608 252 -764 400 -121 116 -183 221
-227 387 -31 115 -31 316 0 436 79 307 280 550 582 702 146 74 357 137 524
158 69 9 397 6 475 -4z"/>
</g>
</svg>
