<svg xmlns="http://www.w3.org/2000/svg" xmlns:xlink="http://www.w3.org/1999/xlink" width="309.16" height="98.13" viewBox="0 0 309.16 98.13"><defs><clipPath id="a"><rect y="3.61" width="122.73" height="90.91" style="fill:none"/></clipPath></defs><path d="M128.39,49.24a31.52,31.52,0,0,1,7.81,4.15,8.24,8.24,0,0,1,3.63,7,9.57,9.57,0,0,1-3.5,7.84q-3.48,2.84-10.34,2.84a26.88,26.88,0,0,1-6-1,17.58,17.58,0,0,1-6.4-2.87l2.94-7.13a27.94,27.94,0,0,0,4.69,1.78,15.8,15.8,0,0,0,4.22.69,6.52,6.52,0,0,0,3.08-.58,1.67,1.67,0,0,0,1-1.41,2.47,2.47,0,0,0-1.06-2,10.93,10.93,0,0,0-3.39-1.61,29.88,29.88,0,0,1-7.67-3.77,7.76,7.76,0,0,1-3.63-6.78,9.1,9.1,0,0,1,3.6-7.67c2.39-1.82,5.72-2.74,10-2.74a24.44,24.44,0,0,1,5.58.89,17.36,17.36,0,0,1,6.13,2.81l-2.94,7.12a30.62,30.62,0,0,0-4.38-1.74,14.29,14.29,0,0,0-4.25-.65,4.27,4.27,0,0,0-2.47.58,1.76,1.76,0,0,0-.82,1.47c0,.46.31.88.93,1.27A17.89,17.89,0,0,0,128.39,49.24Z" style="fill:#fff"/><path d="M162.63,71.43a16,16,0,0,1-10.17-3.15q-4-3.15-4-9.24V45.34h-4.73V37.53h4.73V29.31l10-1.64v9.86h6.71l2.19,7.81h-8.9V57.53a6.12,6.12,0,0,0,1.23,3.94A4.31,4.31,0,0,0,163.25,63a7.25,7.25,0,0,0,1.92-.28,12.1,12.1,0,0,0,2.05-.75l2.95,7.12a10,10,0,0,1-3.43,1.65A14.43,14.43,0,0,1,162.63,71.43Z" style="fill:#fff"/><path d="M187.15,71.57q-6.85,0-9.69-4a16.32,16.32,0,0,1-2.84-9.73V37.05h10.13V57.46a6,6,0,0,0,1.34,4.21,4.85,4.85,0,0,0,3.8,1.48,9.17,9.17,0,0,0,3.46-.79,21.74,21.74,0,0,0,3.46-1.82V37.05h10.07V70.27h-5.21l-2.53-3.15a19.74,19.74,0,0,1-5.52,3.15A17.6,17.6,0,0,1,187.15,71.57Z" style="fill:#fff"/><path d="M247.62,21.92V70.27h-5.2L240,67a17.79,17.79,0,0,1-4.89,2.91,15.82,15.82,0,0,1-6.06,1.2q-7.55,0-11.44-5a19.82,19.82,0,0,1-3.91-12.5,19.6,19.6,0,0,1,4.08-12.64q4.06-5.1,11.81-5.1a15.36,15.36,0,0,1,3.84.55,18.2,18.2,0,0,1,4,1.57V22.67ZM231.74,62.6a8.71,8.71,0,0,0,2.87-.55,14.17,14.17,0,0,0,2.88-1.37V46.57a12,12,0,0,0-3-1.68,8.58,8.58,0,0,0-3.15-.65q-4,0-5.65,3a13,13,0,0,0-1.61,6.16,12.27,12.27,0,0,0,1.65,6.4Q227.42,62.6,231.74,62.6Z" style="fill:#fff"/><path d="M265.57,26.85a5.26,5.26,0,0,1-1.68,3.94,5.59,5.59,0,0,1-4,1.6,5.24,5.24,0,0,1-3.9-1.6,5.43,5.43,0,0,1-1.57-3.94,5.52,5.52,0,0,1,1.57-4,5.18,5.18,0,0,1,3.9-1.65,5.51,5.51,0,0,1,4,1.65A5.34,5.34,0,0,1,265.57,26.85ZM265,37.05V70.27H254.88V37.05Z" style="fill:#fff"/><path d="M288.31,36.09q8.2,0,13,4.76t4.83,13q0,8.09-5.14,12.6T287.83,71q-7.95,0-12.64-4.59T270.5,53.56c0-5.44,1.64-9.7,4.93-12.81S283,36.09,288.31,36.09ZM288,62.6a7.79,7.79,0,0,0,5.65-2.09c1.44-1.39,2.16-3.6,2.16-6.61a11.09,11.09,0,0,0-1.92-6.81,6.34,6.34,0,0,0-5.41-2.57,7,7,0,0,0-5.51,2.26q-2,2.25-2,6.71t1.78,6.74A6.18,6.18,0,0,0,288,62.6Z" style="fill:#fff"/><g style="clip-path:url(#a)"><g style="clip-path:url(#a)"><path d="M34.63,25.5A15.65,15.65,0,0,1,61.35,14.43L39.21,36.57A15.63,15.63,0,0,1,34.63,25.5" style="fill:#ce1e55"/><path d="M50.25,25.52A15.66,15.66,0,0,1,28.11,47.66Z" style="fill:#e2215b"/><path d="M39.16,74.36A15.65,15.65,0,0,1,28.09,47.64L50.23,69.78a15.61,15.61,0,0,1-11.07,4.58" style="fill:#059b7f"/><path d="M39.31,58.85A15.66,15.66,0,1,1,61.45,81Z" style="fill:#5ac6a4"/><path d="M68,58.85A15.66,15.66,0,0,1,94.69,47.78L72.55,69.93A15.66,15.66,0,0,1,68,58.85" style="fill:#f2b700"/><path d="M83.6,58.84A15.66,15.66,0,1,1,61.46,81Z" style="fill:#daa728"/><path d="M83.6,21.07A15.66,15.66,0,0,1,94.68,47.79L72.53,25.65A15.63,15.63,0,0,1,83.6,21.07" style="fill:#0ba3cf"/><path d="M83.49,36.57A15.66,15.66,0,1,1,61.35,14.43Z" style="fill:#13b2e0"/></g></g></svg>