<svg xmlns="http://www.w3.org/2000/svg" xmlns:xlink="http://www.w3.org/1999/xlink" width="309.16" height="98.13" viewBox="0 0 309.16 98.13"><defs><clipPath id="a"><rect y="3.61" width="122.73" height="90.91" style="fill:none"/></clipPath></defs><path d="M128.39,49a31.7,31.7,0,0,1,7.81,4.15,8.26,8.26,0,0,1,3.63,7,9.55,9.55,0,0,1-3.5,7.84q-3.5,2.85-10.34,2.84a26.88,26.88,0,0,1-6-1A17.34,17.34,0,0,1,113.6,67l2.94-7.13a27.1,27.1,0,0,0,4.69,1.78,15.8,15.8,0,0,0,4.21.69,6.37,6.37,0,0,0,3.08-.58,1.66,1.66,0,0,0,1-1.41,2.47,2.47,0,0,0-1.06-2,11.16,11.16,0,0,0-3.39-1.61A29.84,29.84,0,0,1,117.43,53a7.78,7.78,0,0,1-3.63-6.78,9.1,9.1,0,0,1,3.6-7.68q3.59-2.73,10-2.73a23.89,23.89,0,0,1,5.58.89,17.43,17.43,0,0,1,6.13,2.8l-2.94,7.13a30.36,30.36,0,0,0-4.39-1.75,14.51,14.51,0,0,0-4.24-.65,4.27,4.27,0,0,0-2.47.58,1.74,1.74,0,0,0-.82,1.47c0,.46.31.88.93,1.27A17.19,17.19,0,0,0,128.39,49Z" style="fill:#3a3a75"/><path d="M162.63,71.16A16,16,0,0,1,152.46,68c-2.67-2.09-4-5.18-4-9.24V45.07h-4.72V37.26h4.72V29.05l10-1.65v9.86h6.72l2.19,7.81h-8.91V57.26a6.07,6.07,0,0,0,1.24,3.94,4.27,4.27,0,0,0,3.56,1.54,7.64,7.64,0,0,0,1.92-.27,13.09,13.09,0,0,0,2.05-.76l2.95,7.13a10.05,10.05,0,0,1-3.43,1.64A14.54,14.54,0,0,1,162.63,71.16Z" style="fill:#3a3a75"/><path d="M187.15,71.3q-6.85,0-9.69-4a16.25,16.25,0,0,1-2.84-9.73V36.78h10.13V57.19a6.09,6.09,0,0,0,1.34,4.22,4.88,4.88,0,0,0,3.8,1.47,9,9,0,0,0,3.46-.79,21,21,0,0,0,3.46-1.82V36.78h10.06V70h-5.2l-2.53-3.15A19.74,19.74,0,0,1,193.62,70,17.6,17.6,0,0,1,187.15,71.3Z" style="fill:#3a3a75"/><path d="M247.62,21.65V70h-5.2L240,66.71a17.47,17.47,0,0,1-4.9,2.91,15.75,15.75,0,0,1-6.06,1.2q-7.53,0-11.43-5a19.75,19.75,0,0,1-3.91-12.5,19.62,19.62,0,0,1,4.08-12.64q4.06-5.1,11.81-5.1a15.36,15.36,0,0,1,3.84.55,18.7,18.7,0,0,1,4,1.57V22.4ZM231.73,62.33a8.72,8.72,0,0,0,2.88-.55,13.66,13.66,0,0,0,2.88-1.37V46.3a11.64,11.64,0,0,0-3-1.67,8.38,8.38,0,0,0-3.15-.65c-2.69,0-4.58,1-5.65,3a13,13,0,0,0-1.61,6.16,12.31,12.31,0,0,0,1.65,6.41C226.87,61.41,228.86,62.33,231.73,62.33Z" style="fill:#3a3a75"/><path d="M265.57,26.58a5.25,5.25,0,0,1-1.68,3.94,5.61,5.61,0,0,1-4,1.61,5.25,5.25,0,0,1-3.9-1.61,5.42,5.42,0,0,1-1.58-3.94,5.53,5.53,0,0,1,1.58-4,5.18,5.18,0,0,1,3.9-1.65,5.53,5.53,0,0,1,4,1.65A5.34,5.34,0,0,1,265.57,26.58ZM265,36.78V70H254.88V36.78Z" style="fill:#3a3a75"/><path d="M288.3,35.83q8.22,0,13.05,4.76t4.83,13q0,8.09-5.14,12.6t-13.22,4.52q-7.94,0-12.63-4.58T270.5,53.29q0-8.15,4.93-12.81T288.3,35.83ZM288,62.33a7.79,7.79,0,0,0,5.65-2.09q2.16-2.09,2.16-6.61a11.09,11.09,0,0,0-1.92-6.81,6.36,6.36,0,0,0-5.41-2.57,7,7,0,0,0-5.51,2.26c-1.35,1.51-2,3.74-2,6.71s.59,5.17,1.78,6.75A6.18,6.18,0,0,0,288,62.33Z" style="fill:#3a3a75"/><g style="clip-path:url(#a)"><g style="clip-path:url(#a)"><path d="M34.63,25.5A15.65,15.65,0,0,1,61.35,14.43L39.21,36.57A15.63,15.63,0,0,1,34.63,25.5" style="fill:#ce1e55"/><path d="M50.25,25.52A15.66,15.66,0,0,1,28.11,47.66Z" style="fill:#e2215b"/><path d="M39.16,74.36A15.65,15.65,0,0,1,28.09,47.64L50.23,69.78a15.61,15.61,0,0,1-11.07,4.58" style="fill:#059b7f"/><path d="M39.31,58.85A15.66,15.66,0,1,1,61.45,81Z" style="fill:#5ac6a4"/><path d="M68,58.86A15.66,15.66,0,0,1,94.69,47.78L72.55,69.93A15.63,15.63,0,0,1,68,58.86" style="fill:#f2b700"/><path d="M83.6,58.84A15.66,15.66,0,1,1,61.46,81Z" style="fill:#daa728"/><path d="M83.6,21.07A15.66,15.66,0,0,1,94.68,47.79L72.53,25.65A15.63,15.63,0,0,1,83.6,21.07" style="fill:#0ba3cf"/><path d="M83.49,36.57A15.66,15.66,0,1,1,61.35,14.43Z" style="fill:#13b2e0"/></g></g></svg>